<!DOCTYPE svg PUBLIC "-//W3C//DTD SVG 1.1//EN" "http://www.w3.org/Graphics/SVG/1.1/DTD/svg11.dtd">
<!-- Uploaded to: SVG Repo, www.svgrepo.com, Transformed by: SVG Repo Mixer Tools -->
<svg width="800px" height="800px" viewBox="0 0 24 24" fill="none" xmlns="http://www.w3.org/2000/svg">
<g id="SVGRepo_bgCarrier" stroke-width="0"/>
<g id="SVGRepo_tracerCarrier" stroke-linecap="round" stroke-linejoin="round"/>
<g id="SVGRepo_iconCarrier"> <path fill-rule="evenodd" clip-rule="evenodd" d="M9 2C9 1.44772 9.44772 1 10 1C10.5523 1 11 1.44772 11 2V4H13V2C13 1.44772 13.4477 1 14 1C14.5523 1 15 1.44772 15 2V4C18.5922 4 20.875 6.00882 20.875 8.5C20.875 9.91123 20.1424 11.1677 18.8542 11.9918C20.1655 12.8146 20.9134 14.0769 20.9134 15.5C20.9134 17.9976 18.6099 20 15 20V22C15 22.5523 14.5523 23 14 23C13.4477 23 13 22.5523 13 22V20H11V22C11 22.5523 10.5523 23 10 23C9.44772 23 9 22.5523 9 22V20H4C3.44772 20 3 19.5523 3 19C3 18.4477 3.44772 18 4 18H6V6H4C3.44772 6 3 5.55228 3 5C3 4.44772 3.44772 4 4 4H9V2ZM15 11C17.9078 11 18.875 9.50882 18.875 8.5C18.875 7.49118 17.9078 6 15 6H8V11H15ZM8 13V18H15C17.9413 18 18.9134 16.5024 18.9134 15.5C18.9134 14.4976 17.9413 13 15 13H8Z" fill="#ea580c"/> </g>
</svg>