<!DOCTYPE svg PUBLIC "-//W3C//DTD SVG 1.1//EN" "http://www.w3.org/Graphics/SVG/1.1/DTD/svg11.dtd">
<!-- Uploaded to: SVG Repo, www.svgrepo.com, Transformed by: SVG Repo Mixer Tools -->
<svg fill="#ea580c" width="800px" height="800px" viewBox="0 0 24 24" xmlns="http://www.w3.org/2000/svg">
<g id="SVGRepo_bgCarrier" stroke-width="0"/>
<g id="SVGRepo_tracerCarrier" stroke-linecap="round" stroke-linejoin="round"/>
<g id="SVGRepo_iconCarrier"> <path d="M6,9.0098094 L6,9.03544443 C6.16330149,9.01208598 6.33023933,9 6.5,9 L17.5,9 C17.6769741,9 17.8508805,9.01313492 18.0207973,9.03848307 L18.0207973,9.01723559 L17.7107123,8.60220407 C17.4275445,8.22319974 16.9821673,8 16.5090624,8 L7.50488076,8 C7.03068524,8 6.58441454,8.22422442 6.30137918,8.60468779 L6,9.0098094 Z M6,7.50364262 C6.42864454,7.18056617 6.95551883,7 7.50488076,7 L10,7 L10,3.01431559 C7.75002477,3.26303774 6,5.17057438 6,7.4868512 L6,7.50364262 L6,7.50364262 Z M11,7 L13,7 L13,2 L11,2 L11,7 Z M14,7 L16.5090624,7 C17.0613023,7 17.5908746,7.18246753 18.0207817,7.5088155 C18.0147568,5.18644771 16.2576049,3.27572998 14,3.02733647 L14,7 L14,7 Z M20.3102134,10.4133217 C20.7435693,10.9959849 21,11.7180462 21,12.5 L21,14.5 C21,16.2700122 19.6861063,17.733148 17.9804275,17.9672988 C17.7432631,20.7861471 15.3801681,23 12.5,23 L11.5,23 C8.6198319,23 6.25673686,20.7861471 6.01957245,17.9672988 C4.31389372,17.733148 3,16.2700122 3,14.5 L3,12.5 C3,11.5979283 3.3412635,10.775563 3.90172962,10.1549649 L5,8.67864177 L5,7.4868512 C5,4.61782993 7.19674999,2.2618871 10,2.00927271 L10,1.5 C10,1.22385763 10.2238576,1 10.5,1 L13.5,1 C13.7761424,1 14,1.22385763 14,1.5 L14,2.02233624 C16.8147529,2.27501666 19.0207973,4.64028233 19.0207973,7.52079729 L19.0207973,8.68492164 L20.2877221,10.38063 C20.2957098,10.3913211 20.3032056,10.4022274 20.3102134,10.4133217 L20.3102134,10.4133217 Z M4.35013713,11.223275 C4.12773688,11.5969664 4,12.0335659 4,12.5 L4,14.5 C4,15.8807119 5.11928813,17 6.5,17 L7.36399906,17 C8.44039608,17 9.40388719,16.3323002 9.78183541,15.3244383 L10.180712,14.2607675 C10.4650971,13.5024071 11.1900708,13 12,13 C12.8099292,13 13.5349029,13.5024071 13.819288,14.2607675 L14.2181646,15.3244383 C14.5961128,16.3323002 15.5596039,17 16.6360009,17 L17.5,17 C18.8807119,17 20,15.8807119 20,14.5 L20,12.5 C20,11.1192881 18.8807119,10 17.5,10 L6.5,10 C5.77916233,10 5.12957941,10.3050779 4.67332489,10.79316 L4.38271143,11.1838101 C4.37241315,11.1976533 4.36153553,11.2108111 4.35013713,11.223275 L4.35013713,11.223275 Z M16.9725356,18 L16.6360009,18 C15.6807605,18 14.7896173,17.6209434 14.1342172,16.9817808 C14.0915063,16.9936539 14.0464942,17 14,17 L10,17 C9.95350576,17 9.90849372,16.9936539 9.86578281,16.9817808 C9.21038269,17.6209434 8.31923951,18 7.36399906,18 L7.02746439,18 C7.27618653,20.2499752 9.18372317,22 11.5,22 L12.5,22 C14.8162768,22 16.7238135,20.2499752 16.9725356,18 L16.9725356,18 Z M13.4220307,16 C13.37038,15.8949917 13.3235383,15.7867694 13.2818354,15.6755617 L12.8829589,14.6118909 C12.7449376,14.2438343 12.3930846,14 12,14 C11.6069154,14 11.2550624,14.2438343 11.1170411,14.6118909 L10.7181646,15.6755617 C10.6764617,15.7867694 10.62962,15.8949917 10.5779693,16 L13.4220307,16 L13.4220307,16 Z"/> </g>
</svg>